<svg width="500" height="500" viewBox="0 0 500 500" fill="none" xmlns="http://www.w3.org/2000/svg">
<path d="M441.7 104.54C430.097 89.1497 415.59 76.1822 399 66.3699C371.45 49.9999 340.36 40.1499 308.9 34.6999C209.35 17.4699 154.78 35.6999 113.62 65.3299C86.3604 84.9999 77.7904 126.82 69.7404 157.23C65.2204 174.3 61.1904 191.55 55.5704 208.3C46.8404 234.3 27.0104 255.3 20.4004 282.11C13.4004 310.4 13.9504 340.2 23.6404 367.82C42.7904 422.38 75.3304 454 150 464.5C190 470.14 222.15 453.61 255.34 433.72C275.8 421.46 297.01 410.41 320.49 405.41C345.29 400.14 370.8 399.41 395.67 394.51C451.3 383.56 469.15 330.91 476.38 281.04C485.13 220.66 479.65 154.67 441.7 104.54Z" fill="#FDD30A"/>
<path opacity="0.7" d="M441.7 104.54C430.097 89.1497 415.59 76.1822 399 66.3699C371.45 49.9999 340.36 40.1499 308.9 34.6999C209.35 17.4699 154.78 35.6999 113.62 65.3299C86.3604 84.9999 77.7904 126.82 69.7404 157.23C65.2204 174.3 61.1904 191.55 55.5704 208.3C46.8404 234.3 27.0104 255.3 20.4004 282.11C13.4004 310.4 13.9504 340.2 23.6404 367.82C42.7904 422.38 75.3304 454 150 464.5C190 470.14 222.15 453.61 255.34 433.72C275.8 421.46 297.01 410.41 320.49 405.41C345.29 400.14 370.8 399.41 395.67 394.51C451.3 383.56 469.15 330.91 476.38 281.04C485.13 220.66 479.65 154.67 441.7 104.54Z" fill="white"/>
<g opacity="0.2">
<path d="M477.541 59.1104H286.781L280.011 75.3403H477.541V59.1104Z" stroke="black" stroke-linejoin="round"/>
<path d="M477.541 75.3398H286.781L280.011 91.5798H477.541V75.3398Z" stroke="black" stroke-linejoin="round"/>
<path d="M477.541 91.5801H286.781L280.011 107.81H477.541V91.5801Z" stroke="black" stroke-linejoin="round"/>
<path d="M477.541 107.811H286.781L280.011 124.051H477.541V107.811Z" stroke="black" stroke-linejoin="round"/>
<path d="M477.541 124.05H286.781L280.011 140.28H477.541V124.05Z" stroke="black" stroke-linejoin="round"/>
<path d="M477.541 140.28H286.781L280.011 156.52H477.541V140.28Z" stroke="black" stroke-linejoin="round"/>
<path d="M477.541 156.521H286.781L280.011 172.751H477.541V156.521Z" stroke="black" stroke-linejoin="round"/>
<path d="M477.541 172.75H286.781L280.011 188.99H477.541V172.75Z" stroke="black" stroke-linejoin="round"/>
<path d="M477.541 188.99H286.781L280.011 205.22H477.541V188.99Z" stroke="black" stroke-linejoin="round"/>
<path d="M477.541 205.22H286.781L280.011 221.46H477.541V205.22Z" stroke="black" stroke-linejoin="round"/>
<path d="M477.541 221.46H286.781L280.011 237.69H477.541V221.46Z" stroke="black" stroke-linejoin="round"/>
<path d="M477.541 237.69H286.781L280.011 253.93H477.541V237.69Z" stroke="black" stroke-linejoin="round"/>
<path d="M477.541 253.931H286.781L280.011 270.161H477.541V253.931Z" stroke="black" stroke-linejoin="round"/>
<path d="M477.541 270.16H286.781L280.011 286.4H477.541V270.16Z" stroke="black" stroke-linejoin="round"/>
<path d="M477.541 286.4H286.781L280.011 302.63H477.541V286.4Z" stroke="black" stroke-linejoin="round"/>
<path d="M477.541 302.63H286.781L280.011 318.87H477.541V302.63Z" stroke="black" stroke-linejoin="round"/>
<path d="M481.59 53.7002H277.98V324.28H481.59V53.7002Z" stroke="black" stroke-linejoin="round"/>
</g>
<g opacity="0.2">
<path d="M105.71 421.87H37.29V457.98H105.71V421.87Z" stroke="black" stroke-linejoin="round"/>
<path d="M77.0504 435.7H65.9404V441.08H77.0504V435.7Z" stroke="black" stroke-linejoin="round"/>
<path d="M109.21 374.94H33.7803V467.33H109.21V374.94Z" stroke="black" stroke-linejoin="round"/>
<path d="M105.71 379.62H37.29V415.73H105.71V379.62Z" stroke="black" stroke-linejoin="round"/>
<path d="M77.0504 393.45H65.9404V398.83H77.0504V393.45Z" stroke="black" stroke-linejoin="round"/>
<path d="M79.0006 369.091H52.1006V374.941H79.0006V369.091Z" stroke="black" stroke-linejoin="round"/>
<path d="M66.72 350.971H62.04V369.101H66.72V350.971Z" stroke="black" stroke-linejoin="round"/>
<path d="M88.9404 308.86H38.6504V350.96H88.9404V308.86Z" stroke="black" stroke-linejoin="round"/>
</g>
<g opacity="0.2">
<path d="M388.9 423.59V346.39C388.901 344.932 388.615 343.488 388.058 342.141C387.5 340.793 386.683 339.569 385.652 338.538C384.621 337.507 383.397 336.69 382.049 336.132C380.702 335.575 379.258 335.289 377.8 335.29H276.38V424.36" stroke="black" stroke-linejoin="round"/>
<path d="M277.23 335.29H173.92C172.463 335.29 171.02 335.577 169.674 336.135C168.328 336.693 167.105 337.511 166.075 338.542C165.045 339.573 164.228 340.796 163.671 342.143C163.115 343.49 162.829 344.933 162.83 346.39V423.59" stroke="black" stroke-linejoin="round"/>
<path d="M398.92 431V457H276.43V423.59H391.54C392.512 423.589 393.474 423.779 394.372 424.152C395.27 424.524 396.086 425.07 396.772 425.759C397.458 426.448 398.001 427.265 398.369 428.165C398.738 429.064 398.925 430.028 398.92 431Z" stroke="black" stroke-linejoin="round"/>
<path d="M277.36 423.59H160.18C159.211 423.59 158.252 423.781 157.357 424.152C156.462 424.523 155.649 425.067 154.965 425.752C154.28 426.437 153.738 427.251 153.368 428.146C152.998 429.042 152.808 430.001 152.81 430.97V456.97H277.36" stroke="black" stroke-linejoin="round"/>
<path d="M152.81 467.84V456.93H399.13V467.84" stroke="black" stroke-linejoin="round"/>
<path d="M162.83 379.29C162.135 378.566 161.301 377.991 160.379 377.597C159.456 377.204 158.463 377.001 157.46 377H135.15C134.173 376.999 133.206 377.19 132.304 377.563C131.401 377.936 130.581 378.483 129.89 379.173C129.199 379.863 128.651 380.682 128.276 381.584C127.902 382.486 127.71 383.453 127.71 384.43V467.31" stroke="black" stroke-linejoin="round"/>
<path d="M421.43 466.77V384.43C421.43 382.46 420.648 380.57 419.254 379.176C417.861 377.783 415.971 377 414 377H391.69C390.733 376.996 389.784 377.183 388.9 377.55" stroke="black" stroke-linejoin="round"/>
</g>
<path d="M438.46 52.0596V293.06C438.46 295.977 437.301 298.775 435.238 300.838C433.175 302.901 430.377 304.06 427.46 304.06H79.46C76.5426 304.06 73.7447 302.901 71.6818 300.838C69.6189 298.775 68.46 295.977 68.46 293.06V52.0596C68.46 49.4074 69.5135 46.8639 71.3889 44.9885C73.2643 43.1131 75.8078 42.0596 78.46 42.0596H428.46C431.112 42.0596 433.656 43.1131 435.531 44.9885C437.406 46.8639 438.46 49.4074 438.46 52.0596Z" fill="#FDD30A" stroke="#263238" stroke-miterlimit="10"/>
<path d="M438.46 52.0596V72.8596H68.46V52.0596C68.46 49.4074 69.5135 46.8639 71.3889 44.9885C73.2643 43.1131 75.8078 42.0596 78.46 42.0596H428.46C431.112 42.0596 433.656 43.1131 435.531 44.9885C437.406 46.8639 438.46 49.4074 438.46 52.0596Z" fill="#C9C9C9" stroke="#263238" stroke-miterlimit="10"/>
<path d="M306.92 68.8294H109.54C108.651 68.8267 107.799 68.4716 107.171 67.8417C106.543 67.2119 106.19 66.3588 106.19 65.4694C106.19 64.58 106.543 63.7269 107.171 63.097C107.799 62.4672 108.651 62.112 109.54 62.1094H306.92C307.812 62.1094 308.666 62.4634 309.296 63.0935C309.926 63.7236 310.28 64.5782 310.28 65.4694C310.28 66.3605 309.926 67.2151 309.296 67.8453C308.666 68.4754 307.812 68.8294 306.92 68.8294Z" fill="white" stroke="#263238" stroke-miterlimit="10"/>
<path d="M419.71 62.7793H432.47" stroke="#263238" stroke-miterlimit="10"/>
<path d="M419.71 65.4697H432.47" stroke="#263238" stroke-miterlimit="10"/>
<path d="M419.71 68.1592H432.47" stroke="#263238" stroke-miterlimit="10"/>
<path d="M438.46 52.0596V58.0596H68.46V52.0596C68.46 49.4074 69.5135 46.8639 71.3889 44.9885C73.2643 43.1131 75.8078 42.0596 78.46 42.0596H428.46C431.112 42.0596 433.656 43.1131 435.531 44.9885C437.406 46.8639 438.46 49.4074 438.46 52.0596Z" fill="#263238" stroke="#263238" stroke-miterlimit="10"/>
<path d="M401.6 50.3895C401.612 49.7815 401.442 49.1837 401.113 48.6724C400.784 48.1611 400.309 47.7596 399.751 47.5191C399.192 47.2785 398.575 47.2099 397.977 47.3219C397.379 47.4339 396.828 47.7215 396.395 48.148C395.961 48.5745 395.664 49.1204 395.543 49.7163C395.421 50.3121 395.479 50.9307 395.71 51.4932C395.942 52.0557 396.335 52.5365 396.841 52.8742C397.347 53.212 397.942 53.3914 398.55 53.3895C398.948 53.3962 399.344 53.3235 399.713 53.1757C400.083 53.0279 400.42 52.808 400.704 52.5287C400.987 52.2495 401.213 51.9165 401.367 51.5492C401.521 51.182 401.6 50.7877 401.6 50.3895Z" fill="white" stroke="#263238" stroke-miterlimit="10"/>
<path d="M414.24 50.39C414.25 49.7848 414.08 49.1903 413.751 48.6821C413.422 48.174 412.949 47.7753 412.392 47.5368C411.836 47.2983 411.221 47.2307 410.626 47.3427C410.032 47.4547 409.483 47.7411 409.052 48.1656C408.62 48.5901 408.325 49.1334 408.203 49.7264C408.081 50.3194 408.139 50.9352 408.368 51.4954C408.597 52.0556 408.988 52.5349 409.491 52.8723C409.993 53.2097 410.585 53.39 411.19 53.39C411.588 53.3967 411.984 53.324 412.354 53.1762C412.723 53.0284 413.06 52.8085 413.344 52.5292C413.628 52.25 413.853 51.917 414.007 51.5498C414.161 51.1825 414.24 50.7882 414.24 50.39Z" fill="white" stroke="#263238" stroke-miterlimit="10"/>
<path d="M426.88 50.39C426.89 49.7848 426.719 49.1903 426.39 48.6821C426.061 48.174 425.588 47.7753 425.032 47.5368C424.476 47.2983 423.861 47.2307 423.266 47.3427C422.671 47.4547 422.123 47.7411 421.691 48.1656C421.26 48.5901 420.964 49.1334 420.843 49.7264C420.721 50.3194 420.778 50.9352 421.008 51.4954C421.237 52.0556 421.628 52.5349 422.13 52.8723C422.633 53.2097 423.225 53.39 423.83 53.39C424.228 53.3967 424.624 53.324 424.993 53.1762C425.363 53.0284 425.7 52.8085 425.984 52.5292C426.267 52.25 426.493 51.917 426.647 51.5498C426.801 51.1825 426.88 50.7882 426.88 50.39Z" fill="white" stroke="#263238" stroke-miterlimit="10"/>
<path d="M418.52 83.1299H89.4102V289.09H418.52V83.1299Z" fill="white" stroke="#263238" stroke-miterlimit="10"/>
<path d="M410.12 91.6592H97.7998V280.539H410.12V91.6592Z" stroke="#FDD30A" stroke-width="5" stroke-miterlimit="10"/>
<path d="M402.14 101.109H105.78V271.109H402.14V101.109Z" stroke="#FDD30A" stroke-miterlimit="10"/>
<path d="M204.4 120.999V122.749H202.34V120.889C202.34 119.139 201.65 118.089 200.07 118.089C198.49 118.089 197.8 119.089 197.8 120.889V131.149C197.8 132.889 198.52 133.949 200.07 133.949C201.62 133.949 202.34 132.889 202.34 131.149V128.619H204.4V130.999C204.4 133.939 203.01 135.879 200.01 135.879C197.01 135.879 195.66 133.939 195.66 130.999V120.999C195.66 118.059 197.05 116.119 200.01 116.119C202.97 116.119 204.4 118.049 204.4 120.999Z" fill="#263238"/>
<path d="M213.27 124.9V126.84H208.52V133.74H214.35V135.74H206.35V116.3H214.35V118.3H208.52V124.93L213.27 124.9Z" fill="#263238"/>
<path d="M220.67 116.3C223.72 116.3 224.99 117.86 224.99 120.74V122.32C224.99 124.46 224.24 125.79 222.58 126.32C224.35 126.85 225.02 128.32 225.02 130.37V133.37C224.956 134.167 225.09 134.967 225.41 135.7H223.22C222.913 134.957 222.789 134.151 222.86 133.35V130.3C222.86 128.1 221.86 127.41 220.03 127.41H218.5V135.7H216.34V116.3H220.67ZM220.11 125.45C221.83 125.45 222.86 124.9 222.86 122.79V120.93C222.86 119.19 222.22 118.27 220.61 118.27H218.5V125.45H220.11Z" fill="#263238"/>
<path d="M230.09 135.71V118.27H226.52V116.27H235.83V118.27H232.26V135.71H230.09Z" fill="#263238"/>
<path d="M239.49 116.3V135.71H237.33V116.3H239.49Z" fill="#263238"/>
<path d="M248.34 125.34V127.34H243.87V135.74H241.71V116.3H249.42V118.3H243.87V125.37L248.34 125.34Z" fill="#263238"/>
<path d="M253.3 116.3V135.71H251.13V116.3H253.3Z" fill="#263238"/>
<path d="M264.08 120.999V122.749H262V120.889C262 119.139 261.31 118.089 259.73 118.089C258.15 118.089 257.45 119.089 257.45 120.889V131.149C257.45 132.889 258.17 133.949 259.73 133.949C261.29 133.949 262 132.889 262 131.149V128.619H264.05V130.999C264.05 133.939 262.67 135.879 259.67 135.879C256.67 135.879 255.32 133.939 255.32 130.999V120.999C255.32 118.059 256.7 116.119 259.67 116.119C262.64 116.119 264.08 118.049 264.08 120.999Z" fill="#263238"/>
<path d="M268.24 131.8L267.49 135.71H265.49L269.2 116.3H272.33L276.05 135.71H273.9L273.15 131.8H268.24ZM268.52 129.94H272.84L270.65 118.74L268.52 129.94Z" fill="#263238"/>
<path d="M280.58 135.71V118.27H277V116.27H286.32V118.27H282.74V135.71H280.58Z" fill="#263238"/>
<path d="M290 116.3V135.71H287.84V116.3H290Z" fill="#263238"/>
<path d="M292 120.999C292 117.999 293.47 116.119 296.43 116.119C299.39 116.119 300.9 118.029 300.9 120.999V130.999C300.9 133.939 299.43 135.879 296.43 135.879C293.43 135.879 292 133.999 292 130.999V120.999ZM294.13 131.149C294.13 132.919 294.88 133.949 296.43 133.949C297.98 133.949 298.73 132.949 298.73 131.149V120.879C298.73 119.129 298.01 118.079 296.43 118.079C294.85 118.079 294.13 119.079 294.13 120.879V131.149Z" fill="#263238"/>
<path d="M304.89 135.71H303V116.3H305.74L310.23 130.3V116.3H312.15V135.71H309.9L304.9 120.02L304.89 135.71Z" fill="#263238"/>
<path d="M181.25 146.529H330.12" stroke="#263238" stroke-miterlimit="10"/>
<path d="M382.1 165.52H392.4" stroke="#263238" stroke-miterlimit="10"/>
<path d="M293.97 165.52H376.66" stroke="#263238" stroke-miterlimit="10"/>
<path d="M246.1 165.52H289.25" stroke="#263238" stroke-miterlimit="10"/>
<path d="M181.9 165.52H241.74" stroke="#263238" stroke-miterlimit="10"/>
<path d="M143.09 165.52H175.73" stroke="#263238" stroke-miterlimit="10"/>
<path d="M118.97 165.52H138.38" stroke="#263238" stroke-miterlimit="10"/>
<path d="M242.83 174.63H392.4" stroke="#263238" stroke-miterlimit="10"/>
<path d="M126.77 174.63H238.12" stroke="#263238" stroke-miterlimit="10"/>
<path d="M118.97 174.63H122.42" stroke="#263238" stroke-miterlimit="10"/>
<path d="M381.01 183.739H392.4" stroke="#263238" stroke-miterlimit="10"/>
<path d="M319.72 183.739H375.57" stroke="#263238" stroke-miterlimit="10"/>
<path d="M235.21 183.739H315.37" stroke="#263238" stroke-miterlimit="10"/>
<path d="M222.88 183.739H230.5" stroke="#263238" stroke-miterlimit="10"/>
<path d="M118.97 183.739H216.35" stroke="#263238" stroke-miterlimit="10"/>
<path d="M346.92 192.859H392.4" stroke="#263238" stroke-miterlimit="10"/>
<path d="M184.44 192.859H342.57" stroke="#263238" stroke-miterlimit="10"/>
<path d="M169.93 192.859H178.64" stroke="#263238" stroke-miterlimit="10"/>
<path d="M118.97 192.859H165.22" stroke="#263238" stroke-miterlimit="10"/>
<path d="M363.97 201.97H392.4" stroke="#263238" stroke-miterlimit="10"/>
<path d="M242.47 201.97H358.17" stroke="#263238" stroke-miterlimit="10"/>
<path d="M196.04 201.97H237.03" stroke="#263238" stroke-miterlimit="10"/>
<path d="M131.12 201.97H190.6" stroke="#263238" stroke-miterlimit="10"/>
<path d="M118.97 201.97H127.5" stroke="#263238" stroke-miterlimit="10"/>
<path d="M130.02 242.109L139.4 266.479L143.94 255.459L154.97 259.949L144.19 237.069L130.02 242.109Z" fill="#263238" stroke="#263238" stroke-linecap="round" stroke-linejoin="round"/>
<path d="M126.67 236.81L115.32 260.32L126.46 256.11L130.73 267.22L140.05 243.71L126.67 236.81Z" fill="#263238" stroke="#263238" stroke-linecap="round" stroke-linejoin="round"/>
<path d="M154.94 230.89C154.94 230 156.87 228.98 156.75 228.12C156.63 227.26 154.49 226.81 154.24 225.98C153.99 225.15 155.55 223.61 155.19 222.82C154.83 222.03 152.65 222.21 152.19 221.47C151.73 220.73 152.78 218.83 152.19 218.17C151.6 217.51 149.58 218.3 148.92 217.72C148.26 217.14 148.76 215.03 148.02 214.55C147.28 214.07 145.56 215.41 144.75 215.04C143.94 214.67 143.84 212.5 142.99 212.25C142.14 212 140.88 213.77 139.99 213.65C139.1 213.53 138.4 211.47 137.51 211.47C136.62 211.47 135.89 213.53 135.03 213.65C134.17 213.77 132.87 212.01 132.03 212.25C131.19 212.49 131.03 214.68 130.26 215.04C129.49 215.4 127.74 214.04 127 214.55C126.26 215.06 126.76 217.15 126.1 217.73C125.44 218.31 123.4 217.51 122.83 218.17C122.26 218.83 123.32 220.73 122.83 221.47C122.34 222.21 120.18 222.02 119.83 222.82C119.48 223.62 121.03 225.13 120.78 225.98C120.53 226.83 118.4 227.25 118.27 228.12C118.14 228.99 120.08 230 120.08 230.89C120.08 231.78 118.15 232.79 118.27 233.65C118.39 234.51 120.53 234.96 120.78 235.8C121.03 236.64 119.46 238.16 119.83 238.95C120.2 239.74 122.37 239.57 122.83 240.3C123.29 241.03 122.23 242.94 122.83 243.6C123.43 244.26 125.43 243.47 126.1 244.05C126.77 244.63 126.26 246.74 127 247.22C127.74 247.7 129.46 246.36 130.26 246.73C131.06 247.1 131.18 249.27 132.03 249.52C132.88 249.77 134.14 248 135.03 248.13C135.92 248.26 136.62 250.3 137.51 250.3C138.4 250.3 139.13 248.25 139.99 248.13C140.85 248.01 142.15 249.76 142.99 249.52C143.83 249.28 143.99 247.09 144.76 246.73C145.53 246.37 147.28 247.73 148.02 247.22C148.76 246.71 148.26 244.62 148.92 244.05C149.58 243.48 151.62 244.26 152.19 243.6C152.76 242.94 151.7 241.04 152.19 240.3C152.68 239.56 154.84 239.75 155.19 238.95C155.54 238.15 153.99 236.64 154.24 235.79C154.49 234.94 156.62 234.53 156.75 233.65C156.88 232.77 154.94 231.78 154.94 230.89Z" fill="#FDD30A" stroke="#263238" stroke-miterlimit="10"/>
<path d="M137.53 242.949C144.19 242.949 149.59 237.55 149.59 230.889C149.59 224.229 144.19 218.829 137.53 218.829C130.869 218.829 125.47 224.229 125.47 230.889C125.47 237.55 130.869 242.949 137.53 242.949Z" fill="#263238" stroke="#263238" stroke-linecap="round" stroke-linejoin="round"/>
<path d="M137.53 222.6L139.39 228.33H145.41L140.54 231.86L142.4 237.59L137.53 234.05L132.66 237.59L134.52 231.86L129.65 228.33H135.67L137.53 222.6Z" fill="#FDD30A"/>
<path d="M169.13 225.109H215.13" stroke="#263238" stroke-miterlimit="10"/>
<path d="M169.13 236.1H215.13" stroke="#263238" stroke-miterlimit="10"/>
<path d="M366.69 251.2C376.134 251.2 383.79 243.544 383.79 234.1C383.79 224.656 376.134 217 366.69 217C357.246 217 349.59 224.656 349.59 234.1C349.59 243.544 357.246 251.2 366.69 251.2Z" stroke="#FDD30A" stroke-miterlimit="10"/>
<path d="M369.166 245.456C375.424 244.085 379.387 237.901 378.016 231.643C376.646 225.385 370.462 221.422 364.204 222.792C357.945 224.163 353.983 230.347 355.353 236.605C356.723 242.863 362.907 246.826 369.166 245.456Z" fill="#FDD30A"/>
<path d="M423 426.5C423 426.5 419.5 420.5 417.75 417.25C416.529 414.898 415.444 412.477 414.5 410C414.5 410 418.75 412.5 420 413.5C421.25 414.5 426.5 420.75 426.5 420.75L428 419L426.25 413.25L432 419.75L434.75 408L439 419.25L447 409.25L447.5 419.25L457.25 411.5L453.75 423.75L450 429H423.25L423 426.5Z" fill="#FDD30A" stroke="#263238" stroke-miterlimit="10"/>
<path d="M421.5 426.5C421.5 426.5 419.25 425.5 415.5 421C413.105 418.084 410.932 414.992 409 411.75C409 411.75 417.5 416.5 420.5 418.75C423.06 420.937 425.404 423.365 427.5 426C427.5 426 425 419.75 424.75 416.75C424.5 413.75 424.25 407.25 424.25 407.25C424.25 407.25 431.5 414.5 432 416.5C432.5 418.5 435.25 425.25 435.25 425.25C436.079 422.204 436.747 419.116 437.25 416C437.75 412.25 441.75 406.25 441.75 406.25C441.75 406.25 442.25 410.5 442.5 414.75C442.75 419 440.25 427 440.25 427C440.25 427 443.5 419.25 446.75 415.5C449.301 412.713 452.059 410.122 455 407.75C455 407.75 452.5 415.5 451.5 419C450.566 421.725 449.307 424.327 447.75 426.75C450.096 423.784 452.6 420.947 455.25 418.25C457.69 416.298 460.282 414.542 463 413C463 413 460.25 418.25 458.25 421.25C456.384 423.854 454.381 426.358 452.25 428.75H421.5V426.5Z" fill="#FDD30A" stroke="#263238" stroke-miterlimit="10"/>
<path d="M456.7 426L454.97 441.25L452 467.33H420.67L417.7 441.25L415.97 426H456.7Z" fill="white" stroke="#263238" stroke-miterlimit="10"/>
<path d="M454.97 441.25L452 467.33H420.67L417.7 441.25H454.97Z" fill="#FDD30A" stroke="#263238" stroke-miterlimit="10"/>
<path d="M423.5 448.5C424.328 448.5 425 447.828 425 447C425 446.172 424.328 445.5 423.5 445.5C422.672 445.5 422 446.172 422 447C422 447.828 422.672 448.5 423.5 448.5Z" fill="#263238"/>
<path d="M434.5 448.5C435.328 448.5 436 447.828 436 447C436 446.172 435.328 445.5 434.5 445.5C433.672 445.5 433 446.172 433 447C433 447.828 433.672 448.5 434.5 448.5Z" fill="#263238"/>
<path d="M427.75 456.25C428.578 456.25 429.25 455.578 429.25 454.75C429.25 453.922 428.578 453.25 427.75 453.25C426.922 453.25 426.25 453.922 426.25 454.75C426.25 455.578 426.922 456.25 427.75 456.25Z" fill="#263238"/>
<path d="M441 456.25C441.828 456.25 442.5 455.578 442.5 454.75C442.5 453.922 441.828 453.25 441 453.25C440.172 453.25 439.5 453.922 439.5 454.75C439.5 455.578 440.172 456.25 441 456.25Z" fill="#263238"/>
<path d="M449.75 456.25C450.578 456.25 451.25 455.578 451.25 454.75C451.25 453.922 450.578 453.25 449.75 453.25C448.922 453.25 448.25 453.922 448.25 454.75C448.25 455.578 448.922 456.25 449.75 456.25Z" fill="#263238"/>
<path d="M445.5 448.5C446.328 448.5 447 447.828 447 447C447 446.172 446.328 445.5 445.5 445.5C444.672 445.5 444 446.172 444 447C444 447.828 444.672 448.5 445.5 448.5Z" fill="#263238"/>
<path d="M423.5 462.5C424.328 462.5 425 461.828 425 461C425 460.172 424.328 459.5 423.5 459.5C422.672 459.5 422 460.172 422 461C422 461.828 422.672 462.5 423.5 462.5Z" fill="#263238"/>
<path d="M434.5 462.5C435.328 462.5 436 461.828 436 461C436 460.172 435.328 459.5 434.5 459.5C433.672 459.5 433 460.172 433 461C433 461.828 433.672 462.5 434.5 462.5Z" fill="#263238"/>
<path d="M445.5 462.5C446.328 462.5 447 461.828 447 461C447 460.172 446.328 459.5 445.5 459.5C444.672 459.5 444 460.172 444 461C444 461.828 444.672 462.5 445.5 462.5Z" fill="#263238"/>
<path d="M271.18 298.361C271.198 290.74 267.17 284.552 262.183 284.539C257.196 284.527 253.138 290.696 253.12 298.317C253.101 305.939 257.129 312.127 262.116 312.139C267.103 312.151 271.161 305.983 271.18 298.361Z" fill="white" stroke="#263238" stroke-linecap="round" stroke-linejoin="round"/>
<path d="M273.489 263.79C273.489 263.79 268.619 266.58 263.979 263.56C259.339 260.54 262.589 259.16 263.519 257.3C264.449 255.44 262.129 254.98 261.659 252.43C261.189 249.88 262.819 247.79 263.749 247.56C264.679 247.33 264.449 244.77 264.449 242.22C264.449 239.67 267.449 237.35 268.849 237.35C270.249 237.35 271.169 235.5 272.099 233.18C273.029 230.86 274.889 228.77 278.099 230.18C281.309 231.59 282.969 231.57 284.599 229.25C286.229 226.93 290.159 226.47 291.599 227.63C293.039 228.79 293.679 231.11 296.469 228.79C299.259 226.47 302.729 226.94 304.349 228.56C305.969 230.18 305.739 232.04 308.349 231.11C310.959 230.18 315.069 231.57 315.999 234.36C316.929 237.15 321.999 240.16 323.889 239.46C325.779 238.76 328.989 239.46 327.359 242.94C325.729 246.42 327.599 248.74 328.989 248.74C330.379 248.74 333.399 249.67 331.769 252.68C330.139 255.69 328.989 258.02 330.839 258.94C332.689 259.86 335.709 260.1 333.399 264.05C331.089 268 329.219 267.76 329.919 270.05C330.619 272.34 331.999 273.05 329.919 274.69C327.839 276.33 325.279 277.01 325.279 278.4C325.279 279.79 328.059 280.48 324.809 281.64C322.935 282.324 320.989 282.794 319.009 283.04C319.009 283.04 314.379 270.51 301.149 266.34C287.919 262.17 280.279 262.62 277.259 264.25C274.239 265.88 273.489 263.79 273.489 263.79Z" fill="#263238" stroke="#263238" stroke-linecap="round" stroke-linejoin="round"/>
<path d="M278.16 348.83L261.16 356.67C261.16 356.67 252.37 405.33 253 418.83C253.63 432.33 261.16 465.92 261.16 465.92H302C302 465.92 295.72 424.79 298.86 410.04C302 395.29 309.54 354.79 309.54 354.79C309.54 354.79 296.98 351.34 293.21 350.71C289.44 350.08 278.16 348.83 278.16 348.83Z" fill="white" stroke="#263238" stroke-miterlimit="10"/>
<path d="M258.659 371.56L305.659 375.62C305.279 377.62 304.899 379.62 304.509 381.62L257.709 377.62C257.999 375.5 258.349 373.47 258.659 371.56ZM298.879 410C299.239 408.3 299.659 406.26 300.119 404L254.459 400.06C254.199 402.16 253.969 404.19 253.759 406.12L298.879 410.03V410ZM302.879 389.78L256.389 385.78C256.089 387.78 255.789 389.78 255.509 391.84L301.699 395.84C302.129 393.9 302.519 391.88 302.919 389.82L302.879 389.78ZM253.029 415.02C252.969 416.46 252.959 417.73 253.029 418.79C253.029 419.52 253.119 420.31 253.189 421.14L297.999 424C297.999 421.86 297.999 419.8 297.999 417.88L253.029 415.02ZM261.449 356.5L261.169 356.63C261.169 356.63 260.769 358.87 260.169 362.52L307.329 366.6C307.749 364.33 308.139 362.29 308.459 360.6L261.449 356.5ZM299.449 445.92L256.999 445.47C257.399 447.59 257.809 449.64 258.199 451.59L300.199 452.07C299.999 450.15 299.739 448.09 299.519 446L299.449 445.92ZM255.179 435.84L298.749 438.4C298.576 436.353 298.426 434.303 298.299 432.25L254.189 429.66C254.549 431.69 254.889 433.77 255.249 435.88L255.179 435.84Z" fill="#263238"/>
<path d="M275.649 340C275.649 340 272.2 353.18 271.89 360.09C271.58 367 278.789 372.64 289.149 371.7C299.509 370.76 301.39 359.46 301.39 356.63C301.39 353.8 301.999 330 301.999 330C298.526 332.972 294.851 335.698 290.999 338.16C285.069 341.92 275.649 340 275.649 340Z" fill="#B5B5B5" stroke="#263238" stroke-miterlimit="10"/>
<path d="M285.07 351.34C294.88 346.64 299.77 337.41 301.98 331.55C301.98 330.55 301.98 329.99 301.98 329.99C298.507 332.962 294.831 335.688 290.98 338.15C284.98 341.92 275.6 340.04 275.6 340.04C275.6 340.04 273.45 348.28 272.39 355.14C276.798 354.587 281.083 353.302 285.07 351.34Z" fill="#263238" stroke="#263238" stroke-miterlimit="10"/>
<path d="M318.689 289.64C318.689 289.64 318.289 275.72 313.119 267.76C307.949 259.8 297.049 254.93 284.879 257C269.779 259.6 262.999 270.92 260.609 280.47C258.219 290.02 261.009 303.94 261.009 313.47C261.009 323 272.149 340.12 275.329 342.91C278.509 345.7 283.419 346.62 289.029 343.78C294.179 341.16 302.649 332.25 307.819 327.08C312.989 321.91 316.069 306.53 316.869 302.95C317.669 299.37 318.689 289.64 318.689 289.64Z" fill="#B5B5B5" stroke="#263238" stroke-linecap="round" stroke-linejoin="round"/>
<path d="M276.51 316.68C276.51 316.68 276.04 319.68 283 319.23" stroke="#263238" stroke-linecap="round" stroke-linejoin="round"/>
<path d="M274.42 324.56C274.42 324.56 282.54 330.13 290.66 324.8" stroke="#263238" stroke-linecap="round" stroke-linejoin="round"/>
<path d="M290.659 306C290.659 306 292.739 302.52 298.779 305.53" stroke="#263238" stroke-width="2" stroke-linecap="round" stroke-linejoin="round"/>
<path d="M274.419 303.92C274.419 305.59 273.639 306.92 272.679 306.92C271.719 306.92 270.939 305.57 270.939 303.92C270.939 302.27 271.719 300.92 272.679 300.92C273.639 300.92 274.419 302.26 274.419 303.92Z" fill="#263238"/>
<path d="M267 294.41C267 294.41 269.09 289.77 276 292.09" stroke="#263238" stroke-linecap="round" stroke-linejoin="round"/>
<path d="M287.64 294C287.64 294 294.14 290.52 301.33 295.85" stroke="#263238" stroke-linecap="round" stroke-linejoin="round"/>
<path d="M284.879 257C269.779 259.6 262.999 270.92 260.609 280.47C260.11 282.59 259.815 284.753 259.729 286.93C260.509 284.5 264.559 273.84 276.039 270.93C289.039 267.69 300.399 271.86 304.339 277.43C308.279 283 307.339 290.19 308.749 293.67C309.629 295.87 314.049 299.19 317.179 301.33C317.899 297.06 318.689 289.59 318.689 289.59C318.689 289.59 318.289 275.67 313.119 267.71C307.949 259.75 297.049 254.93 284.879 257Z" fill="#263238" stroke="#263238" stroke-linecap="round" stroke-linejoin="round"/>
<path d="M314.78 292.09C314.78 292.09 315.94 279.8 312.46 271.68C308.98 263.56 304.81 260.08 304.81 260.08C304.81 260.08 314.55 265.19 318.03 270.08C321.51 274.97 321.97 286.78 321.03 294.9L313.84 293.74L314.78 292.09Z" fill="#FDD30A" stroke="#263238" stroke-miterlimit="10"/>
<path d="M324.13 304.15C322.73 311.64 317.62 316.97 312.71 316.06C307.8 315.15 304.97 308.32 306.37 300.83C307.77 293.34 312.88 288.01 317.78 288.92C322.68 289.83 325.53 296.66 324.13 304.15Z" fill="white" stroke="#263238" stroke-linecap="round" stroke-linejoin="round"/>
<path d="M323.243 305.112C324.305 299.428 322.151 294.257 318.432 293.562C314.713 292.868 310.838 296.913 309.776 302.597C308.714 308.281 310.868 313.452 314.587 314.146C318.306 314.841 322.181 310.796 323.243 305.112Z" fill="#FDD30A" stroke="#263238" stroke-miterlimit="10"/>
<path d="M266.549 435.32C268.889 451.92 271.769 466.81 271.769 466.81H254.619C254.619 466.81 250.229 444.2 244.889 431.65C241.889 424.51 241.159 421.65 241.109 420.48C238.779 426.03 224.259 460.32 221.659 461.48C218.829 462.73 208.469 460.48 204.659 459.28C200.849 458.08 200.589 452.69 201.219 450.49C201.849 448.29 228.219 384.56 230.719 380.49C233.063 376.343 234.858 371.909 236.059 367.3C236.369 365.42 235.739 361.02 238.569 359.46C240.279 358.51 252.299 355.73 261.569 353.67C267.629 352.32 272.499 351.29 272.499 351.29C272.499 351.29 264.999 379.22 263.719 399C263.169 407.77 264.719 422.09 266.549 435.31C266.559 435.31 266.559 435.31 266.549 435.32Z" fill="#FDD30A" stroke="#263238" stroke-miterlimit="10"/>
<path d="M266.55 435.31C264.39 431.76 255.63 416.52 254.46 400.65C253.41 386.41 259.09 363.04 261.59 353.65C267.65 352.3 272.52 351.27 272.52 351.27C272.52 351.27 265 379.22 263.72 399C263.17 407.77 264.68 422.09 266.55 435.31Z" fill="#FDD30A" stroke="#263238" stroke-miterlimit="10"/>
<path d="M243.529 387.58C244.309 384.19 244.889 382.36 244.889 382.36" stroke="#263238" stroke-miterlimit="10"/>
<path d="M241.44 419.72C241.44 419.72 239.55 413.12 241.12 401.2C241.54 398.05 241.99 395.25 242.44 392.84" stroke="#263238" stroke-miterlimit="10"/>
<path d="M379.56 422.47C372.34 422.15 336.24 399.66 336.24 399.66C336.24 399.66 324.93 421.82 324.62 426.32C324.31 430.82 333.41 466.81 333.41 466.81H294.8C294.8 466.81 293.63 454.18 293.39 440.33C293.28 433.94 293.39 427.33 293.86 421.5C295.43 403.19 301.7 351.5 301.7 351.5L307.99 352.14C307.99 352.14 309.77 352.74 312.56 353.71C319.99 356.29 334.56 361.57 340.95 365.31C349.73 370.45 361.95 378.81 367.95 382.67C373.95 386.53 388.04 395.2 390.86 406.77C393.68 418.34 386.78 422.79 379.56 422.47Z" fill="#FDD30A" stroke="#263238" stroke-miterlimit="10"/>
<path d="M312.56 353.67C311.71 366.53 309.21 397.16 303.82 411.98C298.66 426.15 294.95 436.14 293.39 440.33C293.28 433.94 293.39 427.33 293.86 421.5C295.43 403.19 301.7 351.5 301.7 351.5L307.99 352.14C307.99 352.14 309.77 352.7 312.56 353.67Z" stroke="#263238" stroke-miterlimit="10"/>
<path d="M336.24 399.65L321.8 395.16" stroke="#263238" stroke-miterlimit="10"/>
<path d="M315.699 385.43C316.119 390.18 317.429 395.43 320.859 398.37" stroke="#263238" stroke-miterlimit="10"/>
<path d="M315.83 375.56C315.627 377.359 315.524 379.169 315.52 380.98" stroke="#263238" stroke-miterlimit="10"/>
<path d="M314 392.26C314 392.26 317.45 398.69 321.53 400.94" stroke="#263238" stroke-miterlimit="10"/>
<path d="M335.629 346.24C335.048 343.883 334.746 341.467 334.729 339.04C334.729 335.17 335.629 332.99 334.219 333.12C332.809 333.25 330.349 335.05 329.579 338.12C328.809 341.19 330.479 344.04 330.739 345.07C330.897 345.702 330.984 346.349 330.999 347C330.999 347 319.799 347.38 317.739 347.38C315.679 347.38 313.619 348.54 313.619 350.47C313.619 352.4 315.809 353.47 315.809 353.47L316.809 353.99C316.809 353.99 315.519 356.43 316.419 357.72C316.916 358.455 317.527 359.106 318.229 359.65C317.959 360.04 317.793 360.493 317.747 360.966C317.702 361.439 317.778 361.915 317.969 362.35C318.302 363.226 318.882 363.987 319.639 364.54C319.639 364.54 317.969 366.09 320.159 368.15C322.349 370.21 327.109 370.34 330.449 370.34C333.789 370.34 336.629 370.46 336.629 370.46L338.049 370.59L349.889 388.23L361.089 375.74C361.089 375.74 344.609 359.74 342.419 356.95C340.229 354.16 335.629 346.24 335.629 346.24Z" fill="#B5B5B5" stroke="#263238" stroke-miterlimit="10"/>
<path d="M360.72 374.25L345.34 388.69C345.34 388.69 359.47 407.53 367 417C374.53 426.47 388.35 428 394.31 423.27C400.27 418.54 400.91 407.89 395.57 401.27C390.23 394.65 360.72 374.25 360.72 374.25Z" fill="#FDD30A" stroke="#263238" stroke-miterlimit="10"/>
<path d="M257.799 450.1C257.799 450.1 280.379 454 282.489 454C284.599 454 306.879 448.28 308.379 449.48C309.879 450.68 319.819 459.12 322.229 461.53C323.661 462.952 324.877 464.576 325.839 466.35H305.069L298.749 464.84C298.749 464.84 293.389 467.32 290.379 467.32C287.369 467.32 277.289 466.74 277.289 466.74L259.549 466.45C259.549 466.45 253.579 456.42 257.799 450.1Z" fill="#B5B5B5" stroke="#263238" stroke-miterlimit="10"/>
<path d="M311.39 466.36C311.39 466.36 306.27 460.64 304.17 459.13C302.897 458.21 301.491 457.492 300 457" stroke="#263238" stroke-miterlimit="10"/>
<path d="M318.32 466.66C318.32 466.66 308.38 455.82 307.18 454.91C305.852 454.14 304.435 453.536 302.96 453.11" stroke="#263238" stroke-miterlimit="10"/>
<path d="M208.42 439.86C208.42 439.86 199.42 447.09 197.88 451.86C196.34 456.63 198.48 462.4 203.3 464.21C208.12 466.02 261.88 467 261.88 467C261 467.41 257.06 463.72 259.3 458.79C260.82 455.45 265.02 450.66 265.02 450.66L220.16 439.22" fill="#FDD30A"/>
<path d="M208.42 439.86C208.42 439.86 199.42 447.09 197.88 451.86C196.34 456.63 198.48 462.4 203.3 464.21C208.12 466.02 261.88 467 261.88 467C261 467.41 257.06 463.72 259.3 458.79C260.82 455.45 265.02 450.66 265.02 450.66L220.16 439.22" stroke="#263238" stroke-miterlimit="10"/>
<path d="M284.26 464.96H99.7598V467.33H284.26V464.96Z" fill="#263238" stroke="#263238" stroke-miterlimit="10"/>
<path d="M217.33 467.33H102.26L91.6201 387.31H206.69L217.33 467.33Z" fill="white" stroke="#263238" stroke-miterlimit="10"/>
<path d="M214.99 467.33H99.93L89.29 387.31H204.35L214.99 467.33Z" fill="white" stroke="#263238" stroke-miterlimit="10"/>
<path d="M108.82 467.33H214.64L206.64 406.93C192.48 415.93 175.23 427.58 156.43 441.93C142.101 453.012 126.005 461.599 108.82 467.33Z" fill="#263238" stroke="#263238" stroke-miterlimit="10"/>
<path d="M148.48 433.55C152.655 433.55 156.04 430.425 156.04 426.57C156.04 422.715 152.655 419.59 148.48 419.59C144.305 419.59 140.92 422.715 140.92 426.57C140.92 430.425 144.305 433.55 148.48 433.55Z" fill="white" stroke="#263238" stroke-miterlimit="10"/>
<path d="M11.1699 467.33H473" stroke="#263238" stroke-miterlimit="10"/>
</svg>
