<svg width="258" height="376" viewBox="0 0 258 376" fill="none" xmlns="http://www.w3.org/2000/svg">
<path fill-rule="evenodd" clip-rule="evenodd" d="M102.938 215.675C112.286 102.18 186.309 71.1219 194.448 53.9844C200.143 41.9982 195.156 30.0535 179.526 24.0039C140.899 9.04996 138.992 61.9333 135.243 71.7554C103.45 155.041 36.8225 179.334 29.2991 187.013C9.37081 207.349 18.5045 235.56 44.5735 246.033C67.1766 255.112 100.571 244.405 102.938 215.675Z" fill="#274192"/>
<path fill-rule="evenodd" clip-rule="evenodd" d="M217.299 224.677C85.7205 134.097 94.1345 33.8586 78.4503 13.0781C67.4806 -1.45799 49.9209 -4.68781 32.8814 7.51177C-9.22991 37.6597 53.6014 77.2806 63.1603 88.2232C144.218 181.019 132.21 268.639 136.829 282.041C149.061 317.543 188.888 327.961 217.769 307.886C242.809 290.48 250.606 247.607 217.299 224.677Z" fill="#274192"/>
<path d="M4.09375 365V336.445H10.1484V360H21.7305V365H4.09375ZM44.1914 365L42.1211 358.203H31.7109L29.6406 365H23.1172L33.1953 336.328H40.5977L50.7148 365H44.1914ZM40.6758 353.125C38.7617 346.966 37.681 343.483 37.4336 342.676C37.1992 341.868 37.0299 341.23 36.9258 340.762C36.4961 342.428 35.2656 346.549 33.2344 353.125H40.6758ZM79.6602 365H71.9648L59.543 343.398H59.3672C59.6146 347.214 59.7383 349.935 59.7383 351.562V365H54.3281V336.445H61.9648L74.3672 357.832H74.5039C74.3086 354.121 74.2109 351.497 74.2109 349.961V336.445H79.6602V365ZM110.559 350.449C110.559 355.15 109.217 358.75 106.535 361.25C103.866 363.75 100.005 365 94.9531 365H86.8672V336.445H95.832C100.493 336.445 104.113 337.676 106.691 340.137C109.27 342.598 110.559 346.035 110.559 350.449ZM104.27 350.605C104.27 344.473 101.561 341.406 96.1445 341.406H92.9219V360H95.5195C101.353 360 104.27 356.868 104.27 350.605ZM133.957 365L131.887 358.203H121.477L119.406 365H112.883L122.961 336.328H130.363L140.48 365H133.957ZM130.441 353.125C128.527 346.966 127.447 343.483 127.199 342.676C126.965 341.868 126.796 341.23 126.691 340.762C126.262 342.428 125.031 346.549 123 353.125H130.441ZM165.324 348.965H176.652V363.77C174.816 364.368 173.085 364.785 171.457 365.02C169.842 365.267 168.189 365.391 166.496 365.391C162.186 365.391 158.892 364.128 156.613 361.602C154.348 359.062 153.215 355.423 153.215 350.684C153.215 346.074 154.53 342.48 157.16 339.902C159.803 337.324 163.462 336.035 168.137 336.035C171.066 336.035 173.892 336.621 176.613 337.793L174.602 342.637C172.518 341.595 170.35 341.074 168.098 341.074C165.48 341.074 163.384 341.953 161.809 343.711C160.233 345.469 159.445 347.832 159.445 350.801C159.445 353.9 160.077 356.27 161.34 357.91C162.616 359.538 164.465 360.352 166.887 360.352C168.15 360.352 169.432 360.221 170.734 359.961V354.004H165.324V348.965ZM199.914 365H183.469V336.445H199.914V341.406H189.523V347.676H199.191V352.637H189.523V360H199.914V365ZM231.223 365H223.527L211.105 343.398H210.93C211.177 347.214 211.301 349.935 211.301 351.562V365H205.891V336.445H213.527L225.93 357.832H226.066C225.871 354.121 225.773 351.497 225.773 349.961V336.445H231.223V365ZM254.875 365H238.43V336.445H254.875V341.406H244.484V347.676H254.152V352.637H244.484V360H254.875V365Z" fill="#274192"/>
</svg>
