<svg width="234" height="233" viewBox="0 0 234 233" fill="none" xmlns="http://www.w3.org/2000/svg">
<g id="handicrafts">
<path id="Vector" fill-rule="evenodd" clip-rule="evenodd" d="M117.205 61.4179C117.211 60.0955 117.217 58.7709 119.497 54.5023C121.776 50.2327 126.329 43.0178 134.092 37.8359C141.855 32.6529 152.828 29.5048 160.624 26.2161C168.42 22.9274 173.042 19.4982 175.824 14.8585C178.605 10.2167 179.546 4.36351 180.142 1.71756C180.737 -0.927332 180.989 -0.362833 182.119 2.35289C183.248 5.06861 185.257 9.93447 185.791 14.3077C186.324 18.68 185.383 22.5596 184.223 25.2394C183.061 27.9191 181.681 29.4012 180.99 30.1412C180.299 30.8811 180.299 30.8811 182.465 32.3273C184.631 33.7734 188.961 36.6657 191.628 40.6848C194.296 44.705 195.299 49.8542 195.677 53.4156C196.053 56.977 195.802 58.9517 195.708 59.939C195.613 60.9264 195.677 60.9264 194.389 58.7403C193.103 56.5531 190.467 52.1798 186.7 49.8183C182.935 47.4546 178.04 47.1025 173.93 48.2664C169.819 49.4303 166.493 52.1111 163.512 52.6746C160.531 53.238 157.894 51.6872 156.546 49.7474C155.196 47.8076 155.133 45.4809 155.541 43.6468C155.95 41.8127 156.828 40.4723 157.267 39.8021C157.706 39.1319 157.706 39.1319 154.944 39.4501C152.184 39.7672 146.66 40.4015 141.547 42.6278C136.435 44.8519 131.731 48.6671 128.915 52.0646C126.098 55.4611 125.168 58.439 124.237 61.4169C121.894 61.4169 119.549 61.4169 117.205 61.4169V61.4179ZM169.538 34.2829C171.403 34.2829 172.914 35.9817 172.914 38.0769C172.914 40.1732 171.403 41.8719 169.538 41.8719C167.674 41.8719 166.162 40.1732 166.162 38.0769C166.162 35.9817 167.674 34.2829 169.538 34.2829Z" fill="#FEFEFE"/>
<path id="Vector_2" fill-rule="evenodd" clip-rule="evenodd" d="M125.176 72.9883C127.232 75.7019 129.287 78.4145 132.061 81.2496C134.836 84.0848 138.329 87.0405 140.356 89.8281C142.383 92.6157 142.943 95.2331 142.943 97.6803C142.943 100.128 142.383 102.406 142.103 103.545C141.823 104.684 141.823 104.684 143.245 105.218C144.668 105.75 147.515 106.817 149.283 109.458C151.051 112.099 151.741 116.316 151.267 119.564C150.792 122.811 149.152 125.089 148.333 126.228C147.514 127.367 147.514 127.367 147.298 126.034C147.084 124.701 146.651 122.036 145.185 119.903C143.719 117.77 141.217 116.171 138.069 116.293C134.922 116.414 131.127 118.256 129.402 121.673C127.675 125.09 128.021 130.082 129.595 133.451C131.17 136.82 133.973 138.564 140.636 141.037C147.298 143.508 157.822 146.707 165.283 150.051C172.745 153.395 177.143 156.885 180.832 160.399C184.519 163.913 187.493 167.451 189.046 169.584C190.599 171.716 190.729 172.443 190.793 172.856C190.857 173.268 190.857 173.364 191.72 170.602C192.582 167.84 194.307 162.216 197.585 157.83C200.862 153.444 205.694 150.293 211.192 149.567C216.69 148.838 222.857 150.536 226.696 152.596C230.534 154.655 232.044 157.078 232.691 158.533C233.337 159.986 233.121 160.472 230.577 159.623C228.033 158.775 223.159 156.593 218.114 157.442C213.068 158.29 207.85 162.167 204.119 166.433C200.388 170.698 198.146 175.351 196.981 180.658C195.817 185.965 195.731 191.927 194.954 197.428C192.924 211.811 182.7 222.722 171.212 228.424C164.376 231.816 157.304 232.592 150.705 231.599C144.106 230.606 137.983 227.842 132.915 224.474C127.848 221.105 123.836 217.132 121.353 214.258C118.87 211.383 117.913 209.61 116.956 207.837C116.029 209.61 115.102 211.384 112.633 214.258C110.165 217.132 106.154 221.105 101.086 224.474C96.0184 227.842 89.8939 230.606 83.2953 231.599C76.6968 232.592 69.6232 231.816 62.7876 228.424C51.3005 222.722 41.0768 211.811 39.0459 197.428C38.2699 191.927 38.1834 185.966 37.0189 180.658C35.8544 175.352 33.6119 170.698 29.8813 166.433C26.1508 162.167 20.9321 158.29 15.8865 157.442C10.841 156.593 5.96663 158.775 3.42221 159.623C0.87779 160.472 0.663328 159.986 1.30954 158.533C1.95576 157.078 3.4664 154.655 7.30325 152.596C11.142 150.536 17.3097 148.839 22.8078 149.567C28.3067 150.293 33.1369 153.444 36.415 157.83C39.6922 162.216 41.4182 167.84 42.2799 170.602C43.1434 173.364 43.1434 173.268 43.2083 172.856C43.2723 172.443 43.402 171.716 44.955 169.584C46.507 167.451 49.4823 163.913 53.1706 160.399C56.8579 156.885 61.2562 153.395 68.7183 150.051C76.1803 146.707 86.7023 143.508 93.3648 141.037C100.029 138.564 102.831 136.82 104.406 133.451C105.981 130.082 106.326 125.09 104.601 121.673C102.875 118.256 99.0802 116.414 95.9309 116.293C92.7826 116.171 90.2814 117.771 88.815 119.903C87.3485 122.036 86.9168 124.701 86.7014 126.034C86.486 127.367 86.486 127.367 85.6667 126.228C84.8474 125.089 83.2078 122.811 82.7328 119.564C82.2597 116.316 82.9491 112.099 84.7166 109.458C86.485 106.817 89.3323 105.75 90.7546 105.218C92.1787 104.684 92.1787 104.684 91.8975 103.545C91.6172 102.406 91.0574 100.128 91.0574 97.6803C91.0574 95.2331 91.618 92.6157 93.6442 89.8281C95.6712 87.0405 99.1648 84.0848 101.94 81.2496C104.715 78.4145 106.769 75.7019 108.825 72.9883C111.481 73.0147 114.139 73.0412 115.467 73.0549C116.795 73.0676 116.795 73.0676 116.795 73.0676C116.869 74.834 116.945 76.5994 116.056 79.4208C115.166 82.2422 113.311 86.1208 112.428 90.3609C111.543 94.602 111.629 99.2057 112.581 102.623C113.533 106.041 115.35 108.27 116.258 109.385L117.136 110.462L117.97 109.385C118.833 108.27 120.557 106.041 121.463 102.623C122.368 99.2068 122.454 94.602 121.571 90.3609C120.687 86.1208 118.833 82.2422 117.943 79.4208C117.052 76.5994 117.127 74.834 117.202 73.0676C117.202 73.0676 117.202 73.0676 118.532 73.0549C119.86 73.0412 122.516 73.0147 125.172 72.9883H125.176ZM117.006 146.418C117.86 149.616 118.715 152.813 121.082 156.569C123.449 160.325 127.331 164.638 129.294 168.88C131.256 173.12 131.299 177.289 130.717 180.27C130.134 183.25 128.927 185.043 128.323 185.965C127.72 186.886 127.72 186.934 129.057 187.904C130.394 188.873 133.067 190.763 134.534 193.09C136 195.417 136.259 198.179 135.677 200.312C135.095 202.444 133.671 203.946 132.291 204.625C130.911 205.303 129.575 205.158 128.906 205.012C128.238 204.867 128.238 204.721 128.712 205.982C129.186 207.241 130.134 209.907 132.486 212.791C134.836 215.675 138.588 218.778 143.073 220.765C147.559 222.752 152.776 223.625 157.8 223.334C162.825 223.043 167.656 221.589 171.903 218.802C176.152 216.016 179.818 211.895 181.78 205.643C183.741 199.39 184.001 191.005 181.975 184.997C179.947 178.987 175.635 175.352 171.3 174.043C166.965 172.734 162.61 173.751 159.677 175.811C156.743 177.872 155.234 180.973 154.868 183.785C154.501 186.596 155.277 189.116 155.643 190.425C156.011 191.734 155.968 191.83 156.636 190.812C157.304 189.795 158.684 187.662 160.798 187.468C162.911 187.275 165.757 189.019 166.922 191.589C168.086 194.157 167.569 197.55 165.584 199.44C163.6 201.33 160.15 201.718 156.742 200.192C153.335 198.665 149.971 195.223 147.6 191.006C145.228 186.79 143.848 181.798 144.344 177.363C144.84 172.929 147.211 169.05 148.397 167.111C149.583 165.173 149.583 165.173 146.435 163.525C143.285 161.877 136.991 158.581 131.583 153.241C126.176 147.902 121.656 140.518 117.138 133.134C112.527 140.518 107.917 147.902 102.463 153.241C97.0107 158.581 90.7132 161.877 87.5639 163.525C84.4166 165.173 84.4165 165.173 85.6017 167.111C86.7879 169.05 89.1602 172.928 89.6549 177.363C90.1516 181.798 88.7708 186.79 86.3994 191.006C84.0272 195.224 80.6634 198.665 77.2565 200.192C73.8495 201.718 70.3983 201.33 68.4145 199.44C66.4307 197.549 65.9133 194.157 67.0778 191.589C68.2423 189.019 71.0887 187.275 73.2023 187.468C75.315 187.662 76.6958 189.795 77.3636 190.812C78.0315 191.83 77.9892 191.734 78.3561 190.425C78.7229 189.115 79.4989 186.596 79.133 183.785C78.7662 180.973 77.2565 177.872 74.3236 175.811C71.3916 173.751 67.0355 172.734 62.701 174.043C58.3656 175.352 54.0537 178.987 52.0257 184.997C49.9996 191.006 50.2574 199.391 52.2196 205.643C54.1817 211.895 57.8483 216.016 62.0962 218.802C66.3451 221.589 71.1752 223.043 76.1992 223.334C81.2231 223.625 86.4418 222.752 90.9267 220.765C95.4126 218.778 99.1639 215.676 101.515 212.791C103.865 209.907 104.814 207.241 105.288 205.982C105.763 204.721 105.763 204.867 105.094 205.012C104.426 205.158 103.089 205.303 101.708 204.625C100.328 203.946 98.9051 202.443 98.3238 200.312C97.7416 198.179 97.9994 195.417 99.4658 193.09C100.933 190.763 103.606 188.873 104.944 187.904C106.282 186.934 106.282 186.886 105.677 185.965C105.073 185.044 103.865 183.251 103.283 180.27C102.701 177.289 102.743 173.121 104.706 168.88C106.668 164.639 110.549 160.325 112.918 156.572C115.287 152.819 116.142 149.628 116.57 148.029L117.002 146.418H117.006Z" fill="#FEFEFE" stroke="#FEFEFE" strokeWidth="0.151351" stroke-miterlimit="2.61313"/>
<path id="Vector_3" fill-rule="evenodd" clip-rule="evenodd" d="M107.504 183.023C107.344 182.747 107.211 182.437 107.118 182.098C107.013 181.714 106.961 181.292 106.967 180.853V180.846C106.961 180.406 107.012 179.985 107.118 179.601C107.212 179.263 107.344 178.952 107.504 178.677C107.569 178.55 107.641 178.423 107.72 178.3C108.49 177.077 109.897 176.082 110.6 175.572C111.304 175.063 111.304 175.037 110.986 174.553C110.669 174.069 110.034 173.125 109.727 171.558C109.421 169.99 109.443 167.797 110.476 165.568C111.508 163.336 113.551 161.068 114.795 159.094C116.041 157.12 116.49 155.443 116.715 154.601L116.943 153.755V153.753V153.752C117.393 155.435 117.841 157.116 119.086 159.092C120.332 161.068 122.374 163.336 123.407 165.568C124.439 167.797 124.461 169.99 124.155 171.558C123.848 173.125 123.214 174.069 122.896 174.553C122.578 175.036 122.578 175.063 123.282 175.572C123.985 176.083 125.392 177.077 126.162 178.3C126.24 178.423 126.312 178.55 126.376 178.677C126.537 178.953 126.67 179.263 126.763 179.601C126.867 179.985 126.92 180.407 126.914 180.846V180.853C126.92 181.291 126.867 181.714 126.763 182.098C126.67 182.437 126.537 182.746 126.376 183.023C126.312 183.15 126.24 183.275 126.162 183.4C125.392 184.623 123.984 185.618 123.282 186.128C122.578 186.637 122.578 186.662 122.896 187.148C123.214 187.632 123.848 188.575 124.155 190.142C124.461 191.711 124.439 193.903 123.407 196.133C122.374 198.363 120.332 200.632 119.086 202.608C117.841 204.584 117.393 206.264 116.943 207.946V207.945L116.715 207.097C116.49 206.257 116.041 204.579 114.795 202.605C113.55 200.631 111.508 198.361 110.476 196.132C109.444 193.902 109.421 191.71 109.727 190.141C110.034 188.574 110.669 187.63 110.986 187.147C111.304 186.662 111.304 186.637 110.6 186.126C109.897 185.616 108.49 184.622 107.72 183.399C107.642 183.275 107.57 183.149 107.504 183.022V183.023Z" fill="#B8E2E3"/>
<path id="Vector_4" fill-rule="evenodd" clip-rule="evenodd" d="M116.798 61.4179C116.792 60.0955 116.787 58.7709 114.507 54.5023C112.227 50.2327 107.674 43.0178 99.9109 37.8359C92.1478 32.6529 81.1743 29.5048 73.3784 26.2161C65.5824 22.9274 60.9601 19.4982 58.1786 14.8585C55.3981 10.2167 54.4575 4.36351 53.8602 1.71756C53.2647 -0.927332 53.0136 -0.362833 51.883 2.35289C50.7533 5.06861 48.745 9.93447 48.2117 14.3077C47.6783 18.68 48.619 22.5596 49.7816 25.2394C50.9424 27.9191 52.3232 29.4012 53.0136 30.1412C53.7031 30.8811 53.7031 30.8811 51.5378 32.3273C49.3743 33.7734 45.0427 36.6657 42.375 40.6848C39.7074 44.705 38.7038 49.8542 38.3275 53.4156C37.9513 56.977 38.2024 58.9517 38.2965 59.939C38.3905 60.9264 38.3275 60.9264 39.6134 58.7403C40.9011 56.5531 43.5358 52.1798 47.3021 49.8183C51.0674 47.4546 55.9626 47.1025 60.0731 48.2664C64.1847 49.4303 67.5107 52.1111 70.4916 52.6746C73.4725 53.238 76.109 51.6872 77.4579 49.7474C78.8077 47.8076 78.8708 45.4809 78.4635 43.6468C78.0552 41.8127 77.1757 40.4723 76.7364 39.8021C76.2972 39.1319 76.2972 39.1319 79.0589 39.4501C81.8206 39.7672 87.3431 40.4015 92.4564 42.6278C97.5696 44.8519 102.273 48.6671 105.09 52.0646C107.906 55.4611 108.836 58.439 109.767 61.4169C112.11 61.4169 114.454 61.4169 116.799 61.4169L116.798 61.4179ZM65.288 34.4034C67.1533 34.4034 68.664 36.1022 68.664 38.1974C68.664 40.2926 67.1523 41.9925 65.288 41.9925C63.4236 41.9925 61.9121 40.2937 61.9121 38.1974C61.9121 36.1022 63.4236 34.4034 65.288 34.4034Z" fill="#FEFEFE"/>
<path id="Vector_5" fill-rule="evenodd" clip-rule="evenodd" d="M109.682 61.418H116.169H116.798H124.323C127.174 61.418 129.505 64.0386 129.505 67.2427C129.505 70.4468 127.173 73.0673 124.323 73.0673H116.798H116.169H109.682C106.831 73.0673 104.5 70.4478 104.5 67.2427C104.5 64.0386 106.832 61.418 109.682 61.418Z" fill="#F5AC33"/>
<path id="Vector_6" fill-rule="evenodd" clip-rule="evenodd" d="M116.921 177.012C118.786 177.012 120.298 178.711 120.298 180.806C120.298 182.902 118.786 184.601 116.921 184.601C115.056 184.601 113.545 182.902 113.545 180.806C113.545 178.711 115.056 177.012 116.921 177.012Z" fill="#F5AC32"/>
<path id="Vector_7" fill-rule="evenodd" clip-rule="evenodd" d="M131.838 101.71C133.701 101.71 135.215 103.409 135.215 105.505C135.215 107.599 133.702 109.299 131.838 109.299C129.973 109.299 128.461 107.6 128.461 105.505C128.461 103.409 129.973 101.71 131.838 101.71Z" fill="#F5AC32"/>
<path id="Vector_8" fill-rule="evenodd" clip-rule="evenodd" d="M102.065 101.71C103.931 101.71 105.442 103.409 105.442 105.505C105.442 107.599 103.931 109.299 102.065 109.299C100.201 109.299 98.6895 107.6 98.6895 105.505C98.6895 103.409 100.201 101.71 102.065 101.71Z" fill="#F5AC32"/>
</g>
</svg>
