<svg width="412" height="559" viewBox="0 0 412 559" fill="none" xmlns="http://www.w3.org/2000/svg">
<path d="M99.2351 559C99.4722 559 99.5907 559 99.6969 558.965C99.787 558.936 99.8701 558.888 99.9413 558.826C100.025 558.752 100.085 558.65 100.206 558.446L266.183 277.068C266.243 276.965 266.273 276.914 266.294 276.859C266.312 276.813 266.325 276.764 266.332 276.715C266.341 276.657 266.34 276.598 266.339 276.479L262.239 2.8454C262.222 1.68113 262.213 1.09899 262.006 0.897141C261.834 0.730481 261.59 0.662779 261.357 0.717588C261.075 0.783968 260.769 1.27874 260.155 2.26828L166.645 153.04C166.577 153.149 166.543 153.204 166.52 153.262C166.501 153.312 166.487 153.365 166.479 153.418C166.47 153.48 166.472 153.544 166.477 153.673L170.615 272.055C170.619 272.179 170.621 272.241 170.613 272.302C170.605 272.354 170.592 272.404 170.574 272.453C170.552 272.51 170.52 272.564 170.457 272.671L1.01412 557.297C0.678479 557.86 0.510657 558.142 0.535295 558.374C0.555859 558.567 0.656011 558.744 0.811728 558.86C0.998286 559 1.32636 559 1.98251 559H99.2351Z" fill="#F7F3EE"/>
<path d="M216.744 386.462C216.619 386.671 216.556 386.776 216.532 386.888C216.512 386.983 216.511 387.081 216.53 387.176C216.553 387.289 216.615 387.394 216.737 387.605L315.957 558.439C316.077 558.646 316.137 558.749 316.221 558.823C316.292 558.887 316.376 558.935 316.466 558.965C316.573 559 316.693 559 316.932 559H410.061C410.705 559 411.027 559 411.212 558.863C411.367 558.748 411.468 558.575 411.491 558.383C411.518 558.154 411.359 557.875 411.04 557.315L267.301 304.933C266.983 304.374 266.824 304.095 266.613 304.002C266.437 303.924 266.237 303.922 266.059 303.997C265.846 304.086 265.682 304.362 265.353 304.913L216.744 386.462Z" fill="#F7F3EE"/>
</svg>
